<svg version="1.1" viewBox="0.0 0.0 192.0 192.0" fill="none" stroke="none" stroke-linecap="square" stroke-miterlimit="10" xmlns:xlink="http://www.w3.org/1999/xlink" xmlns="http://www.w3.org/2000/svg"><clipPath id="p.0"><path d="m0 0l192.0 0l0 192.0l-192.0 0l0 -192.0z" clip-rule="nonzero"/></clipPath><g clip-path="url(#p.0)"><path fill="#000000" fill-opacity="0.0" d="m0 0l192.0 0l0 192.0l-192.0 0z" fill-rule="evenodd"/><path fill="#020617" d="m0 40.75584l0 0c0 -22.50883 18.247011 -40.75584 40.75584 -40.75584l110.48831 0l0 0c10.809128 0 21.175537 4.2939067 28.81874 11.937109c7.6432037 7.6432037 11.937103 18.009611 11.937103 28.818731l0 110.48831c0 22.508835 -18.24701 40.755844 -40.755844 40.755844l-110.48831 0c-22.50883 0 -40.75584 -18.24701 -40.75584 -40.755844z" fill-rule="evenodd"/><path fill="#000000" fill-opacity="0.0" d="m0 22.598425l192.0 0l0 146.80316l-192.0 0z" fill-rule="evenodd"/><path fill="#cbd5e1" d="m106.607765 135.36l-20.609375 -32.53125l14.046875 -2.078125l7.046875 6.84375l20.34375 27.765625l-20.828125 0zm-35.96875 0l0 -85.328125l16.609375 0l0 43.40625l-0.984375 9.234375l0 0.4375l0.984375 9.5625l0 22.6875l-16.609375 0zm29.40625 -30.71875l-14.046875 -1.8125l8.859375 -12.78125l9.5 -14.328125l21.109375 0l-18.640625 22.90625l-6.78125 6.015625z" fill-rule="nonzero"/></g></svg>